solid curing_station
facet normal -0.15816739461834495 -0.9874123112040724 -5.4426806094935577e-05
  outer loop
    vertex 129.08463225195803 -186.27387146797642 8.000000000000025
    vertex 127.09769599287783 -185.95536177843468 2.3969715101657127e-14
    vertex 128.35496595112602 -186.20544832226514 2.3969715101657127e-14
  endloop
endfacet
facet normal -0.15816739461834495 -0.9874123112040724 -5.4426806094935577e-05
  outer loop
    vertex 127.09769599287783 -185.95536177843468 2.3969715101657127e-14
    vertex 129.08463225195803 -186.27387146797642 8.000000000000025
    vertex 127.83791888531512 -186.1232729080071 8.000000000000025
  endloop
endfacet
facet normal 0.4346136053992111 0.900617012616224 -0.00010289862494121614
  outer loop
    vertex 133.23882208689525 -167.37632308991653 8.000000000000025
    vertex 134.53412263488258 -168.00223972371435 2.3969715101657127e-14
    vertex 133.38442027206045 -167.4352692621912 2.3969715101657127e-14
  endloop
endfacet
facet normal 0.4346136053992111 0.900617012616224 -0.00010289862494121614
  outer loop
    vertex 134.53412263488258 -168.00223972371435 2.3969715101657127e-14
    vertex 133.23882208689525 -167.37632308991653 8.000000000000025
    vertex 134.37456772851388 -167.912099146096 8.000000000000025
  endloop
endfacet
facet normal 0.18930630418250438 0.9819180782212241 -0.00010420700090995839
  outer loop
    vertex 130.80938440247638 -166.76001533806792 8.000000000000025
    vertex 132.17054927688727 -167.02321558316896 2.3969715101657127e-14
    vertex 130.91327931863907 -166.77312903933847 2.3969715101657127e-14
  endloop
endfacet
facet normal 0.18930630418250438 0.9819180782212241 -0.00010420700090995839
  outer loop
    vertex 132.17054927688727 -167.02321558316896 2.3969715101657127e-14
    vertex 130.80938440247638 -166.76001533806792 8.000000000000025
    vertex 132.0438873799319 -166.99018167679782 8.000000000000025
  endloop
endfacet
facet normal 0.3146009185481171 0.9492240258921416 -0.00010352678968363543
  outer loop
    vertex 132.0438873799319 -166.99018167679782 8.000000000000025
    vertex 133.38442027206045 -167.4352692621912 2.3969715101657127e-14
    vertex 132.17054927688727 -167.02321558316896 2.3969715101657127e-14
  endloop
endfacet
facet normal 0.3146009185481171 0.9492240258921416 -0.00010352678968363543
  outer loop
    vertex 133.38442027206045 -167.4352692621912 2.3969715101657127e-14
    vertex 132.0438873799319 -166.99018167679782 8.000000000000025
    vertex 133.23882208689525 -167.37632308991653 8.000000000000025
  endloop
endfacet
facet normal -0.3220586438545735 0.9467197149649036 -0.00010590242962611072
  outer loop
    vertex 125.88382499770462 -167.4352692621912 8.000000000000025
    vertex 127.09769599287783 -167.02321558316893 2.3969715101657127e-14
    vertex 125.88382499770464 -167.4352692621912 2.3969715101657127e-14
  endloop
endfacet
facet normal -0.3220586438545735 0.9467197149649036 -0.00010590242962611072
  outer loop
    vertex 127.09769599287783 -167.02321558316893 2.3969715101657127e-14
    vertex 125.88382499770462 -167.4352692621912 8.000000000000025
    vertex 127.07241719455286 -167.03002521914766 8.000000000000025
  endloop
endfacet
facet normal -0.19701376617379193 0.9804007164223849 -0.00010571893456603992
  outer loop
    vertex 127.07241719455286 -167.03002521914766 8.000000000000025
    vertex 128.35496595112602 -166.77312903933844 2.3969715101657127e-14
    vertex 127.09769599287783 -167.02321558316893 2.3969715101657127e-14
  endloop
endfacet
facet normal -0.19701376617379193 0.9804007164223849 -0.00010571893456603992
  outer loop
    vertex 128.35496595112602 -166.77312903933844 2.3969715101657127e-14
    vertex 127.07241719455286 -167.03002521914766 8.000000000000025
    vertex 128.30307252390918 -166.780102020629 8.000000000000025
  endloop
endfacet
facet normal 0.06083219390352241 0.9981480016478739 -0.00010483911580194918
  outer loop
    vertex 129.55558365928883 -166.68960339864543 8.000000000000025
    vertex 130.91327931863907 -166.77312903933847 2.3969715101657127e-14
    vertex 129.63412263488252 -166.6892886808018 2.3969715101657127e-14
  endloop
endfacet
facet normal 0.06083219390352241 0.9981480016478739 -0.00010483911580194918
  outer loop
    vertex 130.91327931863907 -166.77312903933847 2.3969715101657127e-14
    vertex 129.55558365928883 -166.68960339864543 8.000000000000025
    vertex 130.80938440247638 -166.76001533806792 8.000000000000025
  endloop
endfacet
facet normal -0.06866553483715958 0.997639731178256 -0.00010535703087345982
  outer loop
    vertex 128.30307252390918 -166.780102020629 8.000000000000025
    vertex 129.63412263488252 -166.6892886808018 2.3969715101657127e-14
    vertex 128.35496595112602 -166.77312903933844 2.3969715101657127e-14
  endloop
endfacet
facet normal -0.06866553483715958 0.997639731178256 -0.00010535703087345982
  outer loop
    vertex 129.63412263488252 -166.6892886808018 2.3969715101657127e-14
    vertex 128.30307252390918 -166.780102020629 8.000000000000025
    vertex 129.55558365928883 -166.68960339864543 8.000000000000025
  endloop
endfacet
facet normal 0.8455988759154859 -0.5338188187458703 -9.901126343865081e-05
  outer loop
    vertex 138.12117159197 -181.38928868080185 2.3969715101657127e-14
    vertex 137.7164860634954 -182.03143640599112 8.000000000000025
    vertex 137.40898536973663 -182.4551506850873 2.3969715101657127e-14
  endloop
endfacet
facet normal 0.8455988759154859 -0.5338188187458703 -9.901126343865081e-05
  outer loop
    vertex 137.7164860634954 -182.03143640599112 8.000000000000025
    vertex 138.12117159197 -181.38928868080185 2.3969715101657127e-14
    vertex 138.35884409220444 -180.95238575482415 8.000000000000025
  endloop
endfacet
facet normal 0.46918424182644075 -0.8831003040231873 -1.5996941386035653e-05
  outer loop
    vertex 135.04601555839363 -184.65944259516908 8.000000000000025
    vertex 133.3844202720604 -185.54330809941243 2.3969715101657127e-14
    vertex 134.5341226348825 -184.9763376378893 2.3969715101657127e-14
  endloop
endfacet
facet normal 0.46918424182644075 -0.8831003040231873 -1.5996941386035653e-05
  outer loop
    vertex 133.3844202720604 -185.54330809941243 2.3969715101657127e-14
    vertex 135.04601555839363 -184.65944259516908 8.000000000000025
    vertex 133.95680789920667 -185.28442325086922 8.000000000000025
  endloop
endfacet
facet normal 0.6796671689981818 -0.7335206467944275 -1.059631416169081e-05
  outer loop
    vertex 136.94141585073754 -183.01948514473148 8.000000000000025
    vertex 135.59998463916799 -184.26415141565593 2.3969715101657127e-14
    vertex 136.56376909051068 -183.41893513643 2.3969715101657127e-14
  endloop
endfacet
facet normal 0.6796671689981818 -0.7335206467944275 -1.059631416169081e-05
  outer loop
    vertex 135.59998463916799 -184.26415141565593 2.3969715101657127e-14
    vertex 136.94141585073754 -183.01948514473148 8.000000000000025
    vertex 136.04636008539637 -183.9003082380711 8.000000000000025
  endloop
endfacet
facet normal 0.3512418298820892 -0.9362847732140762 -1.9711611061593068e-05
  outer loop
    vertex 133.95680789920667 -185.28442325086922 8.000000000000025
    vertex 132.17054927688721 -185.95536177843468 2.3969715101657127e-14
    vertex 133.3844202720604 -185.54330809941243 2.3969715101657127e-14
  endloop
endfacet
facet normal 0.3512418298820892 -0.9362847732140762 -1.9711611061593068e-05
  outer loop
    vertex 132.17054927688721 -185.95536177843468 2.3969715101657127e-14
    vertex 133.95680789920667 -185.28442325086922 8.000000000000025
    vertex 132.79662186748664 -185.7649880400835 8.000000000000025
  endloop
endfacet
facet normal 0.5792756589230197 -0.8151317137780002 -1.3139322156466736e-05
  outer loop
    vertex 136.04636008539637 -183.9003082380711 8.000000000000025
    vertex 134.5341226348825 -184.9763376378893 2.3969715101657127e-14
    vertex 135.59998463916799 -184.26415141565593 2.3969715101657127e-14
  endloop
endfacet
facet normal 0.5792756589230197 -0.8151317137780002 -1.3139322156466736e-05
  outer loop
    vertex 134.5341226348825 -184.9763376378893 2.3969715101657127e-14
    vertex 136.04636008539637 -183.9003082380711 8.000000000000025
    vertex 135.04601555839363 -184.65944259516908 8.000000000000025
  endloop
endfacet
facet normal 0.7696473371882356 -0.6384692352042631 -0.00010980319497571556
  outer loop
    vertex 137.40898536973663 -182.4551506850873 2.3969715101657127e-14
    vertex 136.94141585073754 -183.01948514473148 8.000000000000025
    vertex 136.56376909051068 -183.41893513643 2.3969715101657127e-14
  endloop
endfacet
facet normal 0.7696473371882356 -0.6384692352042631 -0.00010980319497571556
  outer loop
    vertex 136.94141585073754 -183.01948514473148 8.000000000000025
    vertex 137.40898536973663 -182.4551506850873 2.3969715101657127e-14
    vertex 137.7164860634954 -182.03143640599112 8.000000000000025
  endloop
endfacet
facet normal 0.22742881840160406 -0.9737947072897569 -2.4797320808372695e-05
  outer loop
    vertex 132.79662186748664 -185.7649880400835 8.000000000000025
    vertex 130.913279318639 -186.20544832226514 2.3969715101657127e-14
    vertex 132.17054927688721 -185.95536177843468 2.3969715101657127e-14
  endloop
endfacet
facet normal 0.22742881840160406 -0.9737947072897569 -2.4797320808372695e-05
  outer loop
    vertex 130.913279318639 -186.20544832226514 2.3969715101657127e-14
    vertex 132.79662186748664 -185.7649880400835 8.000000000000025
    vertex 131.5845076857992 -186.09324610225892 8.000000000000025
  endloop
endfacet
facet normal 0.8901725866691292 0.45562348263993496 -8.949775783679716e-05
  outer loop
    vertex 138.12117159197004 -171.58928868080184 2.3969715101657127e-14
    vertex 138.5632872893624 -172.45072228006165 8.000000000000025
    vertex 138.68814205349315 -172.73899104362397 2.3969715101657127e-14
  endloop
endfacet
facet normal 0.8901725866691292 0.45562348263993496 -8.949775783679716e-05
  outer loop
    vertex 138.5632872893624 -172.45072228006165 8.000000000000025
    vertex 138.12117159197004 -171.58928868080184 2.3969715101657127e-14
    vertex 137.9735385623781 -171.3420426221571 8.000000000000025
  endloop
endfacet
facet normal 0.547330687159481 0.8369164285592691 -0.00010247501323979393
  outer loop
    vertex 134.37456772851388 -167.912099146096 8.000000000000025
    vertex 135.599984639168 -168.7144259459477 2.3969715101657127e-14
    vertex 134.53412263488258 -168.00223972371435 2.3969715101657127e-14
  endloop
endfacet
facet normal 0.547330687159481 0.8369164285592691 -0.00010247501323979393
  outer loop
    vertex 135.599984639168 -168.7144259459477 2.3969715101657127e-14
    vertex 134.37456772851388 -167.912099146096 8.000000000000025
    vertex 135.4324753927517 -168.58871241730617 8.000000000000025
  endloop
endfacet
facet normal 0.823836730632418 0.566827163174229 -9.137146438195035e-05
  outer loop
    vertex 137.40898536973666 -170.52342667651638 2.3969715101657127e-14
    vertex 137.9735385623781 -171.3420426221571 8.000000000000025
    vertex 138.12117159197004 -171.58928868080184 2.3969715101657127e-14
  endloop
endfacet
facet normal 0.823836730632418 0.566827163174229 -9.137146438195035e-05
  outer loop
    vertex 137.9735385623781 -171.3420426221571 8.000000000000025
    vertex 137.40898536973666 -170.52342667651638 2.3969715101657127e-14
    vertex 137.2468568564199 -170.31788060223226 8.000000000000025
  endloop
endfacet
facet normal 0.7436844025459146 0.6685308524677516 -9.332024194265986e-05
  outer loop
    vertex 136.5637690905107 -169.5596422251737 2.3969715101657127e-14
    vertex 137.2468568564199 -170.31788060223226 8.000000000000025
    vertex 137.40898536973666 -170.52342667651638 2.3969715101657127e-14
  endloop
endfacet
facet normal 0.7436844025459146 0.6685308524677516 -9.332024194265986e-05
  outer loop
    vertex 137.2468568564199 -170.31788060223226 8.000000000000025
    vertex 136.5637690905107 -169.5596422251737 2.3969715101657127e-14
    vertex 136.39517426500947 -169.3950529323397 8.000000000000025
  endloop
endfacet
facet normal 0.6508610555625711 0.7591968623792462 -0.00010249626105898841
  outer loop
    vertex 135.4324753927517 -168.58871241730617 8.000000000000025
    vertex 136.5637690905107 -169.5596422251737 2.3969715101657127e-14
    vertex 135.599984639168 -168.7144259459477 2.3969715101657127e-14
  endloop
endfacet
facet normal 0.6508610555625711 0.7591968623792462 -0.00010249626105898841
  outer loop
    vertex 136.5637690905107 -169.5596422251737 2.3969715101657127e-14
    vertex 135.4324753927517 -168.58871241730617 8.000000000000025
    vertex 136.39517426500947 -169.3950529323397 8.000000000000025
  endloop
endfacet
facet normal -0.029431324500544906 -0.9995668038823364 -4.1407662692077834e-05
  outer loop
    vertex 130.34036823549707 -186.2638074490897 8.000000000000025
    vertex 128.35496595112602 -186.20544832226514 2.3969715101657127e-14
    vertex 129.63412263488252 -186.2892886808018 2.3969715101657127e-14
  endloop
endfacet
facet normal -0.029431324500544906 -0.9995668038823364 -4.1407662692077834e-05
  outer loop
    vertex 128.35496595112602 -186.20544832226514 2.3969715101657127e-14
    vertex 130.34036823549707 -186.2638074490897 8.000000000000025
    vertex 129.08463225195803 -186.27387146797642 8.000000000000025
  endloop
endfacet
facet normal 0.09982380686826686 -0.9950051289166666 -3.18096686569112e-05
  outer loop
    vertex 131.5845076857992 -186.09324610225892 8.000000000000025
    vertex 129.63412263488252 -186.2892886808018 2.3969715101657127e-14
    vertex 130.913279318639 -186.20544832226514 2.3969715101657127e-14
  endloop
endfacet
facet normal 0.09982380686826686 -0.9950051289166666 -3.18096686569112e-05
  outer loop
    vertex 129.63412263488252 -186.2892886808018 2.3969715101657127e-14
    vertex 131.5845076857992 -186.09324610225892 8.000000000000025
    vertex 130.34036823549707 -186.2638074490897 8.000000000000025
  endloop
endfacet
facet normal -1.0 0.0 0.0
  outer loop
    vertex 131.53412263488252 -174.27487596343798 7.999999999999999
    vertex 131.53412263488252 -178.70370139816566 0.0
    vertex 131.53412263488252 -178.70370139816566 7.999999999999999
  endloop
endfacet
facet normal -1.0 0.0 0.0
  outer loop
    vertex 131.53412263488252 -178.70370139816566 0.0
    vertex 131.53412263488252 -174.27487596343798 7.999999999999999
    vertex 131.53412263488252 -174.27487596343798 0.0
  endloop
endfacet
facet normal 0.38268343236506336 0.9238795325112977 0.0
  outer loop
    vertex 128.20912263488245 -179.0681817174557 7.999999999999999
    vertex 128.89648835634023 -179.35289792159386 0.0
    vertex 128.20912263488245 -179.0681817174557 0.0
  endloop
endfacet
facet normal 0.38268343236506336 0.9238795325112977 0.0
  outer loop
    vertex 128.89648835634023 -179.35289792159386 0.0
    vertex 128.20912263488245 -179.0681817174557 7.999999999999999
    vertex 128.89648835634023 -179.35289792159386 7.999999999999999
  endloop
endfacet
facet normal -0.38268343236507407 0.9238795325112932 0.0
  outer loop
    vertex 130.37175691342472 -179.35289792159386 7.999999999999999
    vertex 131.05912263488247 -179.0681817174557 0.0
    vertex 130.37175691342472 -179.35289792159386 0.0
  endloop
endfacet
facet normal -0.38268343236507407 0.9238795325112932 0.0
  outer loop
    vertex 131.05912263488247 -179.0681817174557 0.0
    vertex 130.37175691342472 -179.35289792159386 7.999999999999999
    vertex 131.05912263488247 -179.0681817174557 7.999999999999999
  endloop
endfacet
facet normal 0.6087614290088413 0.7933533402911426 0.0
  outer loop
    vertex 127.73412263488254 -178.70370139816566 7.999999999999999
    vertex 128.20912263488245 -179.0681817174557 0.0
    vertex 127.73412263488254 -178.70370139816566 0.0
  endloop
endfacet
facet normal 0.6087614290088413 0.7933533402911426 0.0
  outer loop
    vertex 128.20912263488245 -179.0681817174557 0.0
    vertex 127.73412263488254 -178.70370139816566 7.999999999999999
    vertex 128.20912263488245 -179.0681817174557 7.999999999999999
  endloop
endfacet
facet normal -0.13052619221995962 0.9914448613738225 0.0
  outer loop
    vertex 129.63412263488246 -179.45000931666996 7.999999999999999
    vertex 130.37175691342472 -179.35289792159386 0.0
    vertex 129.63412263488246 -179.45000931666996 0.0
  endloop
endfacet
facet normal -0.13052619221995962 0.9914448613738225 0.0
  outer loop
    vertex 130.37175691342472 -179.35289792159386 0.0
    vertex 129.63412263488246 -179.45000931666996 7.999999999999999
    vertex 130.37175691342472 -179.35289792159386 7.999999999999999
  endloop
endfacet
facet normal 0.1305261922200271 -0.9914448613738136 0.0
  outer loop
    vertex 129.63412263488246 -173.52856804493365 7.999999999999999
    vertex 128.89648835634026 -173.62567944000978 0.0
    vertex 129.63412263488246 -173.52856804493365 0.0
  endloop
endfacet
facet normal 0.1305261922200271 -0.9914448613738136 0.0
  outer loop
    vertex 128.89648835634026 -173.62567944000978 0.0
    vertex 129.63412263488246 -173.52856804493365 7.999999999999999
    vertex 128.89648835634026 -173.62567944000978 7.999999999999999
  endloop
endfacet
facet normal -0.13052619222001927 -0.9914448613738147 0.0
  outer loop
    vertex 130.37175691342472 -173.62567944000978 7.999999999999999
    vertex 129.63412263488246 -173.52856804493365 0.0
    vertex 130.37175691342472 -173.62567944000978 0.0
  endloop
endfacet
facet normal -0.13052619222001927 -0.9914448613738147 0.0
  outer loop
    vertex 129.63412263488246 -173.52856804493365 0.0
    vertex 130.37175691342472 -173.62567944000978 7.999999999999999
    vertex 129.63412263488246 -173.52856804493365 7.999999999999999
  endloop
endfacet
facet normal -0.6087614290086372 -0.7933533402912992 0.0
  outer loop
    vertex 131.53412263488252 -174.27487596343798 7.999999999999999
    vertex 131.05912263488247 -173.910395644148 0.0
    vertex 131.53412263488252 -174.27487596343798 0.0
  endloop
endfacet
facet normal -0.6087614290086372 -0.7933533402912992 0.0
  outer loop
    vertex 131.05912263488247 -173.910395644148 0.0
    vertex 131.53412263488252 -174.27487596343798 7.999999999999999
    vertex 131.05912263488247 -173.910395644148 7.999999999999999
  endloop
endfacet
facet normal 0.13052619221996356 0.991444861373822 0.0
  outer loop
    vertex 128.89648835634023 -179.35289792159386 7.999999999999999
    vertex 129.63412263488246 -179.45000931666996 0.0
    vertex 128.89648835634023 -179.35289792159386 0.0
  endloop
endfacet
facet normal 0.13052619221996356 0.991444861373822 0.0
  outer loop
    vertex 129.63412263488246 -179.45000931666996 0.0
    vertex 128.89648835634023 -179.35289792159386 7.999999999999999
    vertex 129.63412263488246 -179.45000931666996 7.999999999999999
  endloop
endfacet
facet normal -0.6087614290087322 0.7933533402912265 0.0
  outer loop
    vertex 131.05912263488247 -179.0681817174557 7.999999999999999
    vertex 131.53412263488252 -178.70370139816566 0.0
    vertex 131.05912263488247 -179.0681817174557 0.0
  endloop
endfacet
facet normal -0.6087614290087322 0.7933533402912265 0.0
  outer loop
    vertex 131.53412263488252 -178.70370139816566 0.0
    vertex 131.05912263488247 -179.0681817174557 7.999999999999999
    vertex 131.53412263488252 -178.70370139816566 7.999999999999999
  endloop
endfacet
facet normal 1.0 0.0 0.0
  outer loop
    vertex 127.73412263488254 -174.27487596343798 0.0
    vertex 127.73412263488254 -178.70370139816566 7.999999999999999
    vertex 127.73412263488254 -178.70370139816566 0.0
  endloop
endfacet
facet normal 1.0 0.0 0.0
  outer loop
    vertex 127.73412263488254 -178.70370139816566 7.999999999999999
    vertex 127.73412263488254 -174.27487596343798 0.0
    vertex 127.73412263488254 -174.27487596343798 7.999999999999999
  endloop
endfacet
facet normal 0.0 0.0 -1.0
  outer loop
    vertex 119.9179629934192 -175.21013199704532 2.3969715101657127e-14
    vertex 119.91796299341917 -177.76844536455832 2.3969715101657127e-14
    vertex 119.83412263488252 -176.48928868080182 2.3969715101657127e-14
  endloop
endfacet
facet normal 0.0 0.0 -1.0
  outer loop
    vertex 119.91796299341917 -177.76844536455832 2.3969715101657127e-14
    vertex 119.9179629934192 -175.21013199704532 2.3969715101657127e-14
    vertex 120.16804953724966 -179.02571532280652 2.3969715101657127e-14
  endloop
endfacet
facet normal 0.0 0.0 -1.0
  outer loop
    vertex 120.16804953724966 -179.02571532280652 2.3969715101657127e-14
    vertex 119.9179629934192 -175.21013199704532 2.3969715101657127e-14
    vertex 120.16804953724966 -173.95286203879712 2.3969715101657127e-14
  endloop
endfacet
facet normal 0.0 0.0 -1.0
  outer loop
    vertex 120.16804953724966 -179.02571532280652 2.3969715101657127e-14
    vertex 120.16804953724966 -173.95286203879712 2.3969715101657127e-14
    vertex 120.58010321627192 -172.7389910436239 2.3969715101657127e-14
  endloop
endfacet
facet normal 0.0 0.0 -1.0
  outer loop
    vertex 120.16804953724966 -179.02571532280652 2.3969715101657127e-14
    vertex 120.58010321627192 -172.7389910436239 2.3969715101657127e-14
    vertex 120.58010321627192 -180.2395863179797 2.3969715101657127e-14
  endloop
endfacet
facet normal 0.0 0.0 -1.0
  outer loop
    vertex 120.58010321627192 -180.2395863179797 2.3969715101657127e-14
    vertex 120.58010321627192 -172.7389910436239 2.3969715101657127e-14
    vertex 121.14707367779503 -171.5892886808018 2.3969715101657127e-14
  endloop
endfacet
facet normal 0.0 0.0 -1.0
  outer loop
    vertex 120.58010321627192 -180.2395863179797 2.3969715101657127e-14
    vertex 121.14707367779503 -171.5892886808018 2.3969715101657127e-14
    vertex 121.14707367779502 -181.3892886808018 2.3969715101657127e-14
  endloop
endfacet
facet normal 0.0 0.0 -1.0
  outer loop
    vertex 121.14707367779502 -181.3892886808018 2.3969715101657127e-14
    vertex 121.14707367779503 -171.5892886808018 2.3969715101657127e-14
    vertex 121.85925990002842 -182.4551506850873 2.3969715101657127e-14
  endloop
endfacet
facet normal 0.0 0.0 -1.0
  outer loop
    vertex 121.85925990002842 -182.4551506850873 2.3969715101657127e-14
    vertex 121.14707367779503 -171.5892886808018 2.3969715101657127e-14
    vertex 121.85925990002842 -170.52342667651635 2.3969715101657127e-14
  endloop
endfacet
facet normal 0.0 0.0 -1.0
  outer loop
    vertex 121.85925990002842 -182.4551506850873 2.3969715101657127e-14
    vertex 121.85925990002842 -170.52342667651635 2.3969715101657127e-14
    vertex 122.70447617925437 -169.55964222517363 2.3969715101657127e-14
  endloop
endfacet
facet normal 0.0 0.0 -1.0
  outer loop
    vertex 121.85925990002842 -182.4551506850873 2.3969715101657127e-14
    vertex 122.70447617925437 -169.55964222517363 2.3969715101657127e-14
    vertex 122.70447617925436 -183.41893513642998 2.3969715101657127e-14
  endloop
endfacet
facet normal 0.0 0.0 -1.0
  outer loop
    vertex 122.70447617925436 -183.41893513642998 2.3969715101657127e-14
    vertex 122.70447617925437 -169.55964222517363 2.3969715101657127e-14
    vertex 123.66826063059706 -184.26415141565593 2.3969715101657127e-14
  endloop
endfacet
facet normal 0.0 0.0 -1.0
  outer loop
    vertex 123.66826063059706 -184.26415141565593 2.3969715101657127e-14
    vertex 122.70447617925437 -169.55964222517363 2.3969715101657127e-14
    vertex 123.66826063059706 -168.7144259459477 2.3969715101657127e-14
  endloop
endfacet
facet normal 0.0 0.0 -1.0
  outer loop
    vertex 123.66826063059706 -184.26415141565593 2.3969715101657127e-14
    vertex 123.66826063059706 -168.7144259459477 2.3969715101657127e-14
    vertex 124.73412263488254 -168.0022397237143 2.3969715101657127e-14
  endloop
endfacet
facet normal 0.0 0.0 -1.0
  outer loop
    vertex 123.66826063059706 -184.26415141565593 2.3969715101657127e-14
    vertex 124.73412263488254 -168.0022397237143 2.3969715101657127e-14
    vertex 124.73412263488251 -184.9763376378893 2.3969715101657127e-14
  endloop
endfacet
facet normal 0.0 0.0 -1.0
  outer loop
    vertex 124.73412263488251 -184.9763376378893 2.3969715101657127e-14
    vertex 124.73412263488254 -168.0022397237143 2.3969715101657127e-14
    vertex 125.88382499770464 -185.54330809941243 2.3969715101657127e-14
  endloop
endfacet
facet normal 0.0 0.0 -1.0
  outer loop
    vertex 125.88382499770464 -185.54330809941243 2.3969715101657127e-14
    vertex 124.73412263488254 -168.0022397237143 2.3969715101657127e-14
    vertex 125.88382499770464 -167.4352692621912 2.3969715101657127e-14
  endloop
endfacet
facet normal 0.0 0.0 -1.0
  outer loop
    vertex 125.88382499770464 -185.54330809941243 2.3969715101657127e-14
    vertex 125.88382499770464 -167.4352692621912 2.3969715101657127e-14
    vertex 127.09769599287783 -167.02321558316893 2.3969715101657127e-14
  endloop
endfacet
facet normal 0.0 0.0 -1.0
  outer loop
    vertex 125.88382499770464 -185.54330809941243 2.3969715101657127e-14
    vertex 127.09769599287783 -167.02321558316893 2.3969715101657127e-14
    vertex 127.09769599287783 -185.95536177843468 2.3969715101657127e-14
  endloop
endfacet
facet normal 0.0 0.0 -1.0
  outer loop
    vertex 127.09769599287783 -185.95536177843468 2.3969715101657127e-14
    vertex 127.09769599287783 -167.02321558316893 2.3969715101657127e-14
    vertex 127.73412263488254 -174.27487596343798 0.0
  endloop
endfacet
facet normal 0.0 0.0 -1.0
  outer loop
    vertex 127.73412263488254 -174.27487596343798 0.0
    vertex 127.09769599287783 -167.02321558316893 2.3969715101657127e-14
    vertex 128.35496595112602 -166.77312903933844 2.3969715101657127e-14
  endloop
endfacet
facet normal 0.0 0.0 -1.0
  outer loop
    vertex 127.73412263488254 -174.27487596343798 0.0
    vertex 128.35496595112602 -166.77312903933844 2.3969715101657127e-14
    vertex 128.20912263488245 -173.910395644148 0.0
  endloop
endfacet
facet normal 0.0 0.0 -1.0
  outer loop
    vertex 128.20912263488245 -173.910395644148 0.0
    vertex 128.35496595112602 -166.77312903933844 2.3969715101657127e-14
    vertex 128.89648835634026 -173.62567944000978 0.0
  endloop
endfacet
facet normal 0.0 0.0 -1.0
  outer loop
    vertex 128.89648835634026 -173.62567944000978 0.0
    vertex 128.35496595112602 -166.77312903933844 2.3969715101657127e-14
    vertex 129.63412263488252 -166.6892886808018 2.3969715101657127e-14
  endloop
endfacet
facet normal 0.0 0.0 -1.0
  outer loop
    vertex 128.89648835634026 -173.62567944000978 0.0
    vertex 129.63412263488252 -166.6892886808018 2.3969715101657127e-14
    vertex 129.63412263488246 -173.52856804493365 0.0
  endloop
endfacet
facet normal 0.0 0.0 -1.0
  outer loop
    vertex 129.63412263488246 -173.52856804493365 0.0
    vertex 129.63412263488252 -166.6892886808018 2.3969715101657127e-14
    vertex 130.37175691342472 -173.62567944000978 0.0
  endloop
endfacet
facet normal 0.0 0.0 -1.0
  outer loop
    vertex 130.37175691342472 -173.62567944000978 0.0
    vertex 129.63412263488252 -166.6892886808018 2.3969715101657127e-14
    vertex 130.91327931863907 -166.77312903933847 2.3969715101657127e-14
  endloop
endfacet
facet normal 0.0 0.0 -1.0
  outer loop
    vertex 130.37175691342472 -173.62567944000978 0.0
    vertex 130.91327931863907 -166.77312903933847 2.3969715101657127e-14
    vertex 131.05912263488247 -173.910395644148 0.0
  endloop
endfacet
facet normal 0.0 0.0 -1.0
  outer loop
    vertex 131.05912263488247 -173.910395644148 0.0
    vertex 130.91327931863907 -166.77312903933847 2.3969715101657127e-14
    vertex 132.17054927688727 -167.02321558316896 2.3969715101657127e-14
  endloop
endfacet
facet normal 0.0 0.0 -1.0
  outer loop
    vertex 131.05912263488247 -173.910395644148 0.0
    vertex 132.17054927688727 -167.02321558316896 2.3969715101657127e-14
    vertex 131.53412263488252 -174.27487596343798 0.0
  endloop
endfacet
facet normal 0.0 0.0 -1.0
  outer loop
    vertex 131.53412263488252 -174.27487596343798 0.0
    vertex 132.17054927688727 -167.02321558316896 2.3969715101657127e-14
    vertex 131.53412263488252 -178.70370139816566 0.0
  endloop
endfacet
facet normal 0.0 0.0 -1.0
  outer loop
    vertex 131.53412263488252 -178.70370139816566 0.0
    vertex 132.17054927688727 -167.02321558316896 2.3969715101657127e-14
    vertex 132.17054927688721 -185.95536177843468 2.3969715101657127e-14
  endloop
endfacet
facet normal 0.0 0.0 -1.0
  outer loop
    vertex 132.17054927688721 -185.95536177843468 2.3969715101657127e-14
    vertex 132.17054927688727 -167.02321558316896 2.3969715101657127e-14
    vertex 133.3844202720604 -185.54330809941243 2.3969715101657127e-14
  endloop
endfacet
facet normal 0.0 0.0 -1.0
  outer loop
    vertex 133.3844202720604 -185.54330809941243 2.3969715101657127e-14
    vertex 132.17054927688727 -167.02321558316896 2.3969715101657127e-14
    vertex 133.38442027206045 -167.4352692621912 2.3969715101657127e-14
  endloop
endfacet
facet normal 0.0 0.0 -1.0
  outer loop
    vertex 133.3844202720604 -185.54330809941243 2.3969715101657127e-14
    vertex 133.38442027206045 -167.4352692621912 2.3969715101657127e-14
    vertex 134.5341226348825 -184.9763376378893 2.3969715101657127e-14
  endloop
endfacet
facet normal 0.0 0.0 -1.0
  outer loop
    vertex 134.5341226348825 -184.9763376378893 2.3969715101657127e-14
    vertex 133.38442027206045 -167.4352692621912 2.3969715101657127e-14
    vertex 134.53412263488258 -168.00223972371435 2.3969715101657127e-14
  endloop
endfacet
facet normal 0.0 0.0 -1.0
  outer loop
    vertex 134.5341226348825 -184.9763376378893 2.3969715101657127e-14
    vertex 134.53412263488258 -168.00223972371435 2.3969715101657127e-14
    vertex 135.59998463916799 -184.26415141565593 2.3969715101657127e-14
  endloop
endfacet
facet normal 0.0 0.0 -1.0
  outer loop
    vertex 135.59998463916799 -184.26415141565593 2.3969715101657127e-14
    vertex 134.53412263488258 -168.00223972371435 2.3969715101657127e-14
    vertex 135.599984639168 -168.7144259459477 2.3969715101657127e-14
  endloop
endfacet
facet normal 0.0 0.0 -1.0
  outer loop
    vertex 135.59998463916799 -184.26415141565593 2.3969715101657127e-14
    vertex 135.599984639168 -168.7144259459477 2.3969715101657127e-14
    vertex 136.56376909051068 -183.41893513643 2.3969715101657127e-14
  endloop
endfacet
facet normal 0.0 0.0 -1.0
  outer loop
    vertex 136.56376909051068 -183.41893513643 2.3969715101657127e-14
    vertex 135.599984639168 -168.7144259459477 2.3969715101657127e-14
    vertex 136.5637690905107 -169.5596422251737 2.3969715101657127e-14
  endloop
endfacet
facet normal 0.0 0.0 -1.0
  outer loop
    vertex 136.56376909051068 -183.41893513643 2.3969715101657127e-14
    vertex 136.5637690905107 -169.5596422251737 2.3969715101657127e-14
    vertex 137.40898536973663 -182.4551506850873 2.3969715101657127e-14
  endloop
endfacet
facet normal 0.0 0.0 -1.0
  outer loop
    vertex 137.40898536973663 -182.4551506850873 2.3969715101657127e-14
    vertex 136.5637690905107 -169.5596422251737 2.3969715101657127e-14
    vertex 137.40898536973666 -170.52342667651638 2.3969715101657127e-14
  endloop
endfacet
facet normal 0.0 0.0 -1.0
  outer loop
    vertex 137.40898536973663 -182.4551506850873 2.3969715101657127e-14
    vertex 137.40898536973666 -170.52342667651638 2.3969715101657127e-14
    vertex 138.12117159197 -181.38928868080185 2.3969715101657127e-14
  endloop
endfacet
facet normal 0.0 0.0 -1.0
  outer loop
    vertex 138.12117159197 -181.38928868080185 2.3969715101657127e-14
    vertex 137.40898536973666 -170.52342667651638 2.3969715101657127e-14
    vertex 138.12117159197004 -171.58928868080184 2.3969715101657127e-14
  endloop
endfacet
facet normal 0.0 0.0 -1.0
  outer loop
    vertex 138.12117159197 -181.38928868080185 2.3969715101657127e-14
    vertex 138.12117159197004 -171.58928868080184 2.3969715101657127e-14
    vertex 138.68814205349312 -180.23958631797973 2.3969715101657127e-14
  endloop
endfacet
facet normal 0.0 0.0 -1.0
  outer loop
    vertex 138.68814205349312 -180.23958631797973 2.3969715101657127e-14
    vertex 138.12117159197004 -171.58928868080184 2.3969715101657127e-14
    vertex 138.68814205349315 -172.73899104362397 2.3969715101657127e-14
  endloop
endfacet
facet normal 0.0 0.0 -1.0
  outer loop
    vertex 138.68814205349312 -180.23958631797973 2.3969715101657127e-14
    vertex 138.68814205349315 -172.73899104362397 2.3969715101657127e-14
    vertex 139.1001957325154 -179.02571532280652 2.3969715101657127e-14
  endloop
endfacet
facet normal 0.0 0.0 -1.0
  outer loop
    vertex 139.1001957325154 -179.02571532280652 2.3969715101657127e-14
    vertex 138.68814205349315 -172.73899104362397 2.3969715101657127e-14
    vertex 139.1001957325154 -173.95286203879715 2.3969715101657127e-14
  endloop
endfacet
facet normal 0.0 0.0 -1.0
  outer loop
    vertex 139.1001957325154 -179.02571532280652 2.3969715101657127e-14
    vertex 139.1001957325154 -173.95286203879715 2.3969715101657127e-14
    vertex 139.35028227634587 -175.21013199704532 2.3969715101657127e-14
  endloop
endfacet
facet normal 0.0 0.0 -1.0
  outer loop
    vertex 139.1001957325154 -179.02571532280652 2.3969715101657127e-14
    vertex 139.35028227634587 -175.21013199704532 2.3969715101657127e-14
    vertex 139.35028227634587 -177.76844536455832 2.3969715101657127e-14
  endloop
endfacet
facet normal 0.0 0.0 -1.0
  outer loop
    vertex 139.35028227634587 -177.76844536455832 2.3969715101657127e-14
    vertex 139.35028227634587 -175.21013199704532 2.3969715101657127e-14
    vertex 139.43412263488253 -176.48928868080182 2.3969715101657127e-14
  endloop
endfacet
facet normal 0.0 0.0 -1.0
  outer loop
    vertex 127.09769599287783 -185.95536177843468 2.3969715101657127e-14
    vertex 127.73412263488254 -178.70370139816566 0.0
    vertex 128.35496595112602 -186.20544832226514 2.3969715101657127e-14
  endloop
endfacet
facet normal 0.0 0.0 -1.0
  outer loop
    vertex 127.73412263488254 -178.70370139816566 0.0
    vertex 127.09769599287783 -185.95536177843468 2.3969715101657127e-14
    vertex 127.73412263488254 -174.27487596343798 0.0
  endloop
endfacet
facet normal 0.0 0.0 -1.0
  outer loop
    vertex 128.35496595112602 -186.20544832226514 2.3969715101657127e-14
    vertex 127.73412263488254 -178.70370139816566 0.0
    vertex 128.20912263488245 -179.0681817174557 0.0
  endloop
endfacet
facet normal 0.0 0.0 -1.0
  outer loop
    vertex 128.35496595112602 -186.20544832226514 2.3969715101657127e-14
    vertex 128.20912263488245 -179.0681817174557 0.0
    vertex 128.89648835634023 -179.35289792159386 0.0
  endloop
endfacet
facet normal 0.0 0.0 -1.0
  outer loop
    vertex 128.35496595112602 -186.20544832226514 2.3969715101657127e-14
    vertex 128.89648835634023 -179.35289792159386 0.0
    vertex 129.63412263488252 -186.2892886808018 2.3969715101657127e-14
  endloop
endfacet
facet normal 0.0 0.0 -1.0
  outer loop
    vertex 129.63412263488252 -186.2892886808018 2.3969715101657127e-14
    vertex 128.89648835634023 -179.35289792159386 0.0
    vertex 129.63412263488246 -179.45000931666996 0.0
  endloop
endfacet
facet normal 0.0 0.0 -1.0
  outer loop
    vertex 129.63412263488252 -186.2892886808018 2.3969715101657127e-14
    vertex 129.63412263488246 -179.45000931666996 0.0
    vertex 130.37175691342472 -179.35289792159386 0.0
  endloop
endfacet
facet normal 0.0 0.0 -1.0
  outer loop
    vertex 129.63412263488252 -186.2892886808018 2.3969715101657127e-14
    vertex 130.37175691342472 -179.35289792159386 0.0
    vertex 130.913279318639 -186.20544832226514 2.3969715101657127e-14
  endloop
endfacet
facet normal 0.0 0.0 -1.0
  outer loop
    vertex 130.913279318639 -186.20544832226514 2.3969715101657127e-14
    vertex 130.37175691342472 -179.35289792159386 0.0
    vertex 131.05912263488247 -179.0681817174557 0.0
  endloop
endfacet
facet normal 0.0 0.0 -1.0
  outer loop
    vertex 130.913279318639 -186.20544832226514 2.3969715101657127e-14
    vertex 131.05912263488247 -179.0681817174557 0.0
    vertex 132.17054927688721 -185.95536177843468 2.3969715101657127e-14
  endloop
endfacet
facet normal 0.0 0.0 -1.0
  outer loop
    vertex 132.17054927688721 -185.95536177843468 2.3969715101657127e-14
    vertex 131.05912263488247 -179.0681817174557 0.0
    vertex 131.53412263488252 -178.70370139816566 0.0
  endloop
endfacet
facet normal -5.407414232296791e-32 -1.3518535580742007e-32 1.0
  outer loop
    vertex 119.88726214163657 -177.5084601703958 8.000000000000025
    vertex 119.94751702888225 -175.00279218440357 8.000000000000025
    vertex 119.83695497419382 -176.25369193134335 8.000000000000025
  endloop
endfacet
facet normal -5.407414232296791e-32 -1.3518535580742007e-32 1.0
  outer loop
    vertex 119.94751702888225 -175.00279218440357 8.000000000000025
    vertex 119.88726214163657 -177.5084601703958 8.000000000000025
    vertex 120.0976124889119 -178.74649364176565 8.000000000000025
  endloop
endfacet
facet normal -5.407414232296791e-32 -1.3518535580742007e-32 1.0
  outer loop
    vertex 119.94751702888225 -175.00279218440357 8.000000000000025
    vertex 120.0976124889119 -178.74649364176565 8.000000000000025
    vertex 120.21713287982055 -173.77630066883827 8.000000000000025
  endloop
endfacet
facet normal -5.407414232296791e-32 -1.3518535580742007e-32 1.0
  outer loop
    vertex 120.21713287982055 -173.77630066883827 8.000000000000025
    vertex 120.0976124889119 -178.74649364176565 8.000000000000025
    vertex 120.46455206913305 -179.9474638700802 8.000000000000025
  endloop
endfacet
facet normal -5.407414232296791e-32 -1.3518535580742007e-32 1.0
  outer loop
    vertex 120.21713287982055 -173.77630066883827 8.000000000000025
    vertex 120.46455206913305 -179.9474638700802 8.000000000000025
    vertex 120.64137544219024 -172.59435634142483 8.000000000000025
  endloop
endfacet
facet normal -5.407414232296791e-32 -1.3518535580742007e-32 1.0
  outer loop
    vertex 120.64137544219024 -172.59435634142483 8.000000000000025
    vertex 120.46455206913305 -179.9474638700802 8.000000000000025
    vertex 120.98205574453733 -181.0916509573933 8.000000000000025
  endloop
endfacet
facet normal -5.407414232296791e-32 -1.3518535580742007e-32 1.0
  outer loop
    vertex 120.64137544219024 -172.59435634142483 8.000000000000025
    vertex 120.98205574453733 -181.0916509573933 8.000000000000025
    vertex 121.21327866484602 -171.47636669534268 8.000000000000025
  endloop
endfacet
facet normal -5.407414232296791e-32 -1.3518535580742007e-32 1.0
  outer loop
    vertex 121.21327866484602 -171.47636669534268 8.000000000000025
    vertex 120.98205574453733 -181.0916509573933 8.000000000000025
    vertex 121.64162611908179 -182.1602673833639 8.000000000000025
  endloop
endfacet
facet normal -5.407414232296791e-32 -1.3518535580742007e-32 1.0
  outer loop
    vertex 121.21327866484602 -171.47636669534268 8.000000000000025
    vertex 121.64162611908179 -182.1602673833639 8.000000000000025
    vertex 121.92345191268296 -170.44068908967208 8.000000000000025
  endloop
endfacet
facet normal -5.407414232296791e-32 -1.3518535580742007e-32 1.0
  outer loop
    vertex 121.92345191268296 -170.44068908967208 8.000000000000025
    vertex 121.64162611908179 -182.1602673833639 8.000000000000025
    vertex 122.43243306545118 -183.13576649582112 8.000000000000025
  endloop
endfacet
facet normal -5.407414232296791e-32 -1.3518535580742007e-32 1.0
  outer loop
    vertex 121.92345191268296 -170.44068908967208 8.000000000000025
    vertex 122.43243306545118 -183.13576649582112 8.000000000000025
    vertex 122.76023416060545 -169.50432932206527 8.000000000000025
  endloop
endfacet
facet normal -5.407414232296791e-32 -1.3518535580742007e-32 1.0
  outer loop
    vertex 122.76023416060545 -169.50432932206527 8.000000000000025
    vertex 122.43243306545118 -183.13576649582112 8.000000000000025
    vertex 123.34149155544918 -184.0021306263075 8.000000000000025
  endloop
endfacet
facet normal -5.407414232296791e-32 -1.3518535580742007e-32 1.0
  outer loop
    vertex 122.76023416060545 -169.50432932206527 8.000000000000025
    vertex 123.34149155544918 -184.0021306263075 8.000000000000025
    vertex 123.70988546723669 -168.6826623940193 8.000000000000025
  endloop
endfacet
facet normal -5.407414232296791e-32 -1.3518535580742007e-32 1.0
  outer loop
    vertex 123.70988546723669 -168.6826623940193 8.000000000000025
    vertex 123.34149155544918 -184.0021306263075 8.000000000000025
    vertex 124.35387487380233 -184.7451340997524 8.000000000000025
  endloop
endfacet
facet normal -5.407414232296791e-32 -1.3518535580742007e-32 1.0
  outer loop
    vertex 123.70988546723669 -168.6826623940193 8.000000000000025
    vertex 124.35387487380233 -184.7451340997524 8.000000000000025
    vertex 124.75681258437626 -167.98918005377647 8.000000000000025
  endloop
endfacet
facet normal -5.407414232296791e-32 -1.3518535580742007e-32 1.0
  outer loop
    vertex 124.75681258437626 -167.98918005377647 8.000000000000025
    vertex 124.35387487380233 -184.7451340997524 8.000000000000025
    vertex 125.45295971441205 -185.35257681966328 8.000000000000025
  endloop
endfacet
facet normal -5.407414232296791e-32 -1.3518535580742007e-32 1.0
  outer loop
    vertex 124.75681258437626 -167.98918005377647 8.000000000000025
    vertex 125.45295971441205 -185.35257681966328 8.000000000000025
    vertex 125.88382499770462 -167.4352692621912 8.000000000000025
  endloop
endfacet
facet normal -5.407414232296791e-32 -1.3518535580742007e-32 1.0
  outer loop
    vertex 125.88382499770462 -167.4352692621912 8.000000000000025
    vertex 125.45295971441205 -185.35257681966328 8.000000000000025
    vertex 126.62069913458141 -185.81448459337295 8.000000000000025
  endloop
endfacet
facet normal -5.407414232296791e-32 -1.3518535580742007e-32 1.0
  outer loop
    vertex 125.88382499770462 -167.4352692621912 8.000000000000025
    vertex 126.62069913458141 -185.81448459337295 8.000000000000025
    vertex 127.07241719455286 -167.03002521914766 8.000000000000025
  endloop
endfacet
facet normal -5.407414232296791e-32 -1.3518535580742007e-32 1.0
  outer loop
    vertex 127.07241719455286 -167.03002521914766 8.000000000000025
    vertex 126.62069913458141 -185.81448459337295 8.000000000000025
    vertex 127.83791888531512 -186.1232729080071 8.000000000000025
  endloop
endfacet
facet normal -5.407414232296791e-32 -1.3518535580742007e-32 1.0
  outer loop
    vertex 127.07241719455286 -167.03002521914766 8.000000000000025
    vertex 127.83791888531512 -186.1232729080071 8.000000000000025
    vertex 127.73412263488254 -178.70370139816566 7.999999999999999
  endloop
endfacet
facet normal -5.407414232296791e-32 -1.3518535580742007e-32 1.0
  outer loop
    vertex 127.73412263488254 -178.70370139816566 7.999999999999999
    vertex 127.83791888531512 -186.1232729080071 8.000000000000025
    vertex 128.20912263488245 -179.0681817174557 7.999999999999999
  endloop
endfacet
facet normal -5.407414232296791e-32 -1.3518535580742007e-32 1.0
  outer loop
    vertex 128.20912263488245 -179.0681817174557 7.999999999999999
    vertex 127.83791888531512 -186.1232729080071 8.000000000000025
    vertex 129.08463225195803 -186.27387146797642 8.000000000000025
  endloop
endfacet
facet normal -5.407414232296791e-32 -1.3518535580742007e-32 1.0
  outer loop
    vertex 128.20912263488245 -179.0681817174557 7.999999999999999
    vertex 129.08463225195803 -186.27387146797642 8.000000000000025
    vertex 128.89648835634023 -179.35289792159386 7.999999999999999
  endloop
endfacet
facet normal -5.407414232296791e-32 -1.3518535580742007e-32 1.0
  outer loop
    vertex 128.89648835634023 -179.35289792159386 7.999999999999999
    vertex 129.08463225195803 -186.27387146797642 8.000000000000025
    vertex 129.63412263488246 -179.45000931666996 7.999999999999999
  endloop
endfacet
facet normal -5.407414232296791e-32 -1.3518535580742007e-32 1.0
  outer loop
    vertex 129.63412263488246 -179.45000931666996 7.999999999999999
    vertex 129.08463225195803 -186.27387146797642 8.000000000000025
    vertex 130.34036823549707 -186.2638074490897 8.000000000000025
  endloop
endfacet
facet normal -5.407414232296791e-32 -1.3518535580742007e-32 1.0
  outer loop
    vertex 129.63412263488246 -179.45000931666996 7.999999999999999
    vertex 130.34036823549707 -186.2638074490897 8.000000000000025
    vertex 130.37175691342472 -179.35289792159386 7.999999999999999
  endloop
endfacet
facet normal -5.407414232296791e-32 -1.3518535580742007e-32 1.0
  outer loop
    vertex 130.37175691342472 -179.35289792159386 7.999999999999999
    vertex 130.34036823549707 -186.2638074490897 8.000000000000025
    vertex 131.5845076857992 -186.09324610225892 8.000000000000025
  endloop
endfacet
facet normal -5.407414232296791e-32 -1.3518535580742007e-32 1.0
  outer loop
    vertex 130.37175691342472 -179.35289792159386 7.999999999999999
    vertex 131.5845076857992 -186.09324610225892 8.000000000000025
    vertex 131.05912263488247 -179.0681817174557 7.999999999999999
  endloop
endfacet
facet normal -5.407414232296791e-32 -1.3518535580742007e-32 1.0
  outer loop
    vertex 131.05912263488247 -179.0681817174557 7.999999999999999
    vertex 131.5845076857992 -186.09324610225892 8.000000000000025
    vertex 131.53412263488252 -178.70370139816566 7.999999999999999
  endloop
endfacet
facet normal -5.407414232296791e-32 -1.3518535580742007e-32 1.0
  outer loop
    vertex 131.53412263488252 -178.70370139816566 7.999999999999999
    vertex 131.5845076857992 -186.09324610225892 8.000000000000025
    vertex 131.53412263488252 -174.27487596343798 7.999999999999999
  endloop
endfacet
facet normal -5.407414232296791e-32 -1.3518535580742007e-32 1.0
  outer loop
    vertex 127.07241719455286 -167.03002521914766 8.000000000000025
    vertex 127.73412263488254 -174.27487596343798 7.999999999999999
    vertex 128.30307252390918 -166.780102020629 8.000000000000025
  endloop
endfacet
facet normal -5.407414232296791e-32 -1.3518535580742007e-32 1.0
  outer loop
    vertex 127.73412263488254 -174.27487596343798 7.999999999999999
    vertex 127.07241719455286 -167.03002521914766 8.000000000000025
    vertex 127.73412263488254 -178.70370139816566 7.999999999999999
  endloop
endfacet
facet normal -5.407414232296791e-32 -1.3518535580742007e-32 1.0
  outer loop
    vertex 128.30307252390918 -166.780102020629 8.000000000000025
    vertex 127.73412263488254 -174.27487596343798 7.999999999999999
    vertex 128.20912263488245 -173.910395644148 7.999999999999999
  endloop
endfacet
facet normal -5.407414232296791e-32 -1.3518535580742007e-32 1.0
  outer loop
    vertex 128.30307252390918 -166.780102020629 8.000000000000025
    vertex 128.20912263488245 -173.910395644148 7.999999999999999
    vertex 128.89648835634026 -173.62567944000978 7.999999999999999
  endloop
endfacet
facet normal -5.407414232296791e-32 -1.3518535580742007e-32 1.0
  outer loop
    vertex 128.30307252390918 -166.780102020629 8.000000000000025
    vertex 128.89648835634026 -173.62567944000978 7.999999999999999
    vertex 129.55558365928883 -166.68960339864543 8.000000000000025
  endloop
endfacet
facet normal -5.407414232296791e-32 -1.3518535580742007e-32 1.0
  outer loop
    vertex 129.55558365928883 -166.68960339864543 8.000000000000025
    vertex 128.89648835634026 -173.62567944000978 7.999999999999999
    vertex 129.63412263488246 -173.52856804493365 7.999999999999999
  endloop
endfacet
facet normal -5.407414232296791e-32 -1.3518535580742007e-32 1.0
  outer loop
    vertex 129.55558365928883 -166.68960339864543 8.000000000000025
    vertex 129.63412263488246 -173.52856804493365 7.999999999999999
    vertex 130.80938440247638 -166.76001533806792 8.000000000000025
  endloop
endfacet
facet normal -5.407414232296791e-32 -1.3518535580742007e-32 1.0
  outer loop
    vertex 130.80938440247638 -166.76001533806792 8.000000000000025
    vertex 129.63412263488246 -173.52856804493365 7.999999999999999
    vertex 130.37175691342472 -173.62567944000978 7.999999999999999
  endloop
endfacet
facet normal -5.407414232296791e-32 -1.3518535580742007e-32 1.0
  outer loop
    vertex 130.80938440247638 -166.76001533806792 8.000000000000025
    vertex 130.37175691342472 -173.62567944000978 7.999999999999999
    vertex 131.05912263488247 -173.910395644148 7.999999999999999
  endloop
endfacet
facet normal -5.407414232296791e-32 -1.3518535580742007e-32 1.0
  outer loop
    vertex 130.80938440247638 -166.76001533806792 8.000000000000025
    vertex 131.05912263488247 -173.910395644148 7.999999999999999
    vertex 132.0438873799319 -166.99018167679782 8.000000000000025
  endloop
endfacet
facet normal -5.407414232296791e-32 -1.3518535580742007e-32 1.0
  outer loop
    vertex 132.0438873799319 -166.99018167679782 8.000000000000025
    vertex 131.05912263488247 -173.910395644148 7.999999999999999
    vertex 131.53412263488252 -174.27487596343798 7.999999999999999
  endloop
endfacet
facet normal -5.407414232296791e-32 -1.3518535580742007e-32 1.0
  outer loop
    vertex 132.0438873799319 -166.99018167679782 8.000000000000025
    vertex 131.53412263488252 -174.27487596343798 7.999999999999999
    vertex 131.5845076857992 -186.09324610225892 8.000000000000025
  endloop
endfacet
facet normal -5.407414232296791e-32 -1.3518535580742007e-32 1.0
  outer loop
    vertex 132.0438873799319 -166.99018167679782 8.000000000000025
    vertex 131.5845076857992 -186.09324610225892 8.000000000000025
    vertex 132.79662186748664 -185.7649880400835 8.000000000000025
  endloop
endfacet
facet normal -5.407414232296791e-32 -1.3518535580742007e-32 1.0
  outer loop
    vertex 132.0438873799319 -166.99018167679782 8.000000000000025
    vertex 132.79662186748664 -185.7649880400835 8.000000000000025
    vertex 133.23882208689525 -167.37632308991653 8.000000000000025
  endloop
endfacet
facet normal -5.407414232296791e-32 -1.3518535580742007e-32 1.0
  outer loop
    vertex 133.23882208689525 -167.37632308991653 8.000000000000025
    vertex 132.79662186748664 -185.7649880400835 8.000000000000025
    vertex 133.95680789920667 -185.28442325086922 8.000000000000025
  endloop
endfacet
facet normal -5.407414232296791e-32 -1.3518535580742007e-32 1.0
  outer loop
    vertex 133.23882208689525 -167.37632308991653 8.000000000000025
    vertex 133.95680789920667 -185.28442325086922 8.000000000000025
    vertex 134.37456772851388 -167.912099146096 8.000000000000025
  endloop
endfacet
facet normal -5.407414232296791e-32 -1.3518535580742007e-32 1.0
  outer loop
    vertex 134.37456772851388 -167.912099146096 8.000000000000025
    vertex 133.95680789920667 -185.28442325086922 8.000000000000025
    vertex 135.04601555839363 -184.65944259516908 8.000000000000025
  endloop
endfacet
facet normal -5.407414232296791e-32 -1.3518535580742007e-32 1.0
  outer loop
    vertex 134.37456772851388 -167.912099146096 8.000000000000025
    vertex 135.04601555839363 -184.65944259516908 8.000000000000025
    vertex 135.4324753927517 -168.58871241730617 8.000000000000025
  endloop
endfacet
facet normal -5.407414232296791e-32 -1.3518535580742007e-32 1.0
  outer loop
    vertex 135.4324753927517 -168.58871241730617 8.000000000000025
    vertex 135.04601555839363 -184.65944259516908 8.000000000000025
    vertex 136.04636008539637 -183.9003082380711 8.000000000000025
  endloop
endfacet
facet normal -5.407414232296791e-32 -1.3518535580742007e-32 1.0
  outer loop
    vertex 135.4324753927517 -168.58871241730617 8.000000000000025
    vertex 136.04636008539637 -183.9003082380711 8.000000000000025
    vertex 136.39517426500947 -169.3950529323397 8.000000000000025
  endloop
endfacet
facet normal -5.407414232296791e-32 -1.3518535580742007e-32 1.0
  outer loop
    vertex 136.39517426500947 -169.3950529323397 8.000000000000025
    vertex 136.04636008539637 -183.9003082380711 8.000000000000025
    vertex 136.94141585073754 -183.01948514473148 8.000000000000025
  endloop
endfacet
facet normal -5.407414232296791e-32 -1.3518535580742007e-32 1.0
  outer loop
    vertex 136.39517426500947 -169.3950529323397 8.000000000000025
    vertex 136.94141585073754 -183.01948514473148 8.000000000000025
    vertex 137.2468568564199 -170.31788060223226 8.000000000000025
  endloop
endfacet
facet normal -5.407414232296791e-32 -1.3518535580742007e-32 1.0
  outer loop
    vertex 137.2468568564199 -170.31788060223226 8.000000000000025
    vertex 136.94141585073754 -183.01948514473148 8.000000000000025
    vertex 137.7164860634954 -182.03143640599112 8.000000000000025
  endloop
endfacet
facet normal -5.407414232296791e-32 -1.3518535580742007e-32 1.0
  outer loop
    vertex 137.2468568564199 -170.31788060223226 8.000000000000025
    vertex 137.7164860634954 -182.03143640599112 8.000000000000025
    vertex 137.9735385623781 -171.3420426221571 8.000000000000025
  endloop
endfacet
facet normal -5.407414232296791e-32 -1.3518535580742007e-32 1.0
  outer loop
    vertex 137.9735385623781 -171.3420426221571 8.000000000000025
    vertex 137.7164860634954 -182.03143640599112 8.000000000000025
    vertex 138.35884409220444 -180.95238575482415 8.000000000000025
  endloop
endfacet
facet normal -5.407414232296791e-32 -1.3518535580742007e-32 1.0
  outer loop
    vertex 137.9735385623781 -171.3420426221571 8.000000000000025
    vertex 138.35884409220444 -180.95238575482415 8.000000000000025
    vertex 138.5632872893624 -172.45072228006165 8.000000000000025
  endloop
endfacet
facet normal -5.407414232296791e-32 -1.3518535580742007e-32 1.0
  outer loop
    vertex 138.5632872893624 -172.45072228006165 8.000000000000025
    vertex 138.35884409220444 -180.95238575482415 8.000000000000025
    vertex 138.85794243579218 -179.80005117309068 8.000000000000025
  endloop
endfacet
facet normal -5.407414232296791e-32 -1.3518535580742007e-32 1.0
  outer loop
    vertex 138.5632872893624 -172.45072228006165 8.000000000000025
    vertex 138.85794243579218 -179.80005117309068 8.000000000000025
    vertex 139.00641937958022 -173.62571508661412 8.000000000000025
  endloop
endfacet
facet normal -5.407414232296791e-32 -1.3518535580742007e-32 1.0
  outer loop
    vertex 139.00641937958022 -173.62571508661412 8.000000000000025
    vertex 138.85794243579218 -179.80005117309068 8.000000000000025
    vertex 139.20558591325528 -178.59335396276478 8.000000000000025
  endloop
endfacet
facet normal -5.407414232296791e-32 -1.3518535580742007e-32 1.0
  outer loop
    vertex 139.00641937958022 -173.62571508661412 8.000000000000025
    vertex 139.20558591325528 -178.59335396276478 8.000000000000025
    vertex 139.29565861636124 -174.8477276924154 8.000000000000025
  endloop
endfacet
facet normal -5.407414232296791e-32 -1.3518535580742007e-32 1.0
  outer loop
    vertex 139.29565861636124 -174.8477276924154 8.000000000000025
    vertex 139.20558591325528 -178.59335396276478 8.000000000000025
    vertex 139.39606622830487 -177.35210805867908 8.000000000000025
  endloop
endfacet
facet normal -5.407414232296791e-32 -1.3518535580742007e-32 1.0
  outer loop
    vertex 139.29565861636124 -174.8477276924154 8.000000000000025
    vertex 139.39606622830487 -177.35210805867908 8.000000000000025
    vertex 139.42625569943397 -176.09669468426256 8.000000000000025
  endloop
endfacet
facet normal -0.3826834323651518 -0.9238795325112611 0.0
  outer loop
    vertex 131.05912263488247 -173.910395644148 7.999999999999999
    vertex 130.37175691342472 -173.62567944000978 0.0
    vertex 131.05912263488247 -173.910395644148 0.0
  endloop
endfacet
facet normal -0.3826834323651518 -0.9238795325112611 0.0
  outer loop
    vertex 130.37175691342472 -173.62567944000978 0.0
    vertex 131.05912263488247 -173.910395644148 7.999999999999999
    vertex 130.37175691342472 -173.62567944000978 7.999999999999999
  endloop
endfacet
facet normal 0.6087614290087464 -0.7933533402912153 0.0
  outer loop
    vertex 128.20912263488245 -173.910395644148 7.999999999999999
    vertex 127.73412263488254 -174.27487596343798 0.0
    vertex 128.20912263488245 -173.910395644148 0.0
  endloop
endfacet
facet normal 0.6087614290087464 -0.7933533402912153 0.0
  outer loop
    vertex 127.73412263488254 -174.27487596343798 0.0
    vertex 128.20912263488245 -173.910395644148 7.999999999999999
    vertex 127.73412263488254 -174.27487596343798 7.999999999999999
  endloop
endfacet
facet normal 0.38268343236513036 -0.9238795325112701 0.0
  outer loop
    vertex 128.89648835634026 -173.62567944000978 7.999999999999999
    vertex 128.20912263488245 -173.910395644148 0.0
    vertex 128.89648835634026 -173.62567944000978 0.0
  endloop
endfacet
facet normal 0.38268343236513036 -0.9238795325112701 0.0
  outer loop
    vertex 128.20912263488245 -173.910395644148 0.0
    vertex 128.89648835634026 -173.62567944000978 7.999999999999999
    vertex 128.20912263488245 -173.910395644148 7.999999999999999
  endloop
endfacet
facet normal -0.8509591273254186 -0.5252281517404683 0.0019880243595106427
  outer loop
    vertex 120.98205574453733 -181.0916509573933 8.000000000000025
    vertex 121.14707367779502 -181.3892886808018 2.3969715101657127e-14
    vertex 121.64162611908179 -182.1602673833639 8.000000000000025
  endloop
endfacet
facet normal -0.8968708665590821 -0.4422877655843381 -0.002044781644831506
  outer loop
    vertex 120.58010321627192 -180.2395863179797 2.3969715101657127e-14
    vertex 121.14707367779502 -181.3892886808018 2.3969715101657127e-14
    vertex 120.98205574453733 -181.0916509573933 8.000000000000025
  endloop
endfacet
facet normal -0.3214238188493069 -0.9468840365283804 0.009866612592415676
  outer loop
    vertex 127.83791888531512 -186.1232729080071 8.000000000000025
    vertex 125.88382499770464 -185.54330809941243 2.3969715101657127e-14
    vertex 127.09769599287783 -185.95536177843468 2.3969715101657127e-14
  endloop
endfacet
facet normal -0.24588155335547807 -0.9692461433975558 -0.0102066266935711
  outer loop
    vertex 126.62069913458141 -185.81448459337295 8.000000000000025
    vertex 125.88382499770464 -185.54330809941243 2.3969715101657127e-14
    vertex 127.83791888531512 -186.1232729080071 8.000000000000025
  endloop
endfacet
facet normal -0.6899016139113586 -0.7238999138126194 0.002162846408113857
  outer loop
    vertex 122.43243306545118 -183.13576649582112 8.000000000000025
    vertex 122.70447617925436 -183.41893513642998 2.3969715101657127e-14
    vertex 123.34149155544918 -184.0021306263075 8.000000000000025
  endloop
endfacet
facet normal -0.7518379408425244 -0.6593441781038442 -0.0022283424868916398
  outer loop
    vertex 121.85925990002842 -182.4551506850873 2.3969715101657127e-14
    vertex 122.70447617925436 -183.41893513642998 2.3969715101657127e-14
    vertex 122.43243306545118 -183.13576649582112 8.000000000000025
  endloop
endfacet
facet normal -0.44226505959791107 -0.8968248233733658 0.010336984095351243
  outer loop
    vertex 126.62069913458141 -185.81448459337295 8.000000000000025
    vertex 124.73412263488251 -184.9763376378893 2.3969715101657127e-14
    vertex 125.88382499770464 -185.54330809941243 2.3969715101657127e-14
  endloop
endfacet
facet normal -0.3678054913342577 -0.9298414004518516 -0.010681317807493514
  outer loop
    vertex 125.45295971441205 -185.35257681966328 8.000000000000025
    vertex 124.73412263488251 -184.9763376378893 2.3969715101657127e-14
    vertex 126.62069913458141 -185.81448459337295 8.000000000000025
  endloop
endfacet
facet normal -0.555537735157914 -0.8314209758154859 0.010815996932351241
  outer loop
    vertex 125.45295971441205 -185.35257681966328 8.000000000000025
    vertex 123.66826063059706 -184.26415141565593 2.3969715101657127e-14
    vertex 124.73412263488251 -184.9763376378893 2.3969715101657127e-14
  endloop
endfacet
facet normal -0.4836887385391539 -0.8751688721859989 -0.011164648095158327
  outer loop
    vertex 124.35387487380233 -184.7451340997524 8.000000000000025
    vertex 123.66826063059706 -184.26415141565593 2.3969715101657127e-14
    vertex 125.45295971441205 -185.35257681966328 8.000000000000025
  endloop
endfacet
facet normal -0.9111376274084845 -0.4120978782327537 0.0018875053643860387
  outer loop
    vertex 120.46455206913305 -179.9474638700802 8.000000000000025
    vertex 120.58010321627192 -180.2395863179797 2.3969715101657127e-14
    vertex 120.98205574453733 -181.0916509573933 8.000000000000025
  endloop
endfacet
facet normal -0.9469283477554759 -0.3214388604840601 -0.001939893758355447
  outer loop
    vertex 120.16804953724966 -179.02571532280652 2.3969715101657127e-14
    vertex 120.58010321627192 -180.2395863179797 2.3969715101657127e-14
    vertex 120.46455206913305 -179.9474638700802 8.000000000000025
  endloop
endfacet
facet normal -0.9858696597669278 -0.16750599244360023 0.0016602549584198304
  outer loop
    vertex 119.88726214163657 -177.5084601703958 8.000000000000025
    vertex 119.91796299341917 -177.76844536455832 2.3969715101657127e-14
    vertex 120.0976124889119 -178.74649364176565 8.000000000000025
  endloop
endfacet
facet normal -0.9978574746965679 -0.06540303428767137 -0.001703906732841007
  outer loop
    vertex 119.83412263488252 -176.48928868080182 2.3969715101657127e-14
    vertex 119.91796299341917 -177.76844536455832 2.3969715101657127e-14
    vertex 119.88726214163657 -177.5084601703958 8.000000000000025
  endloop
endfacet
facet normal -0.5554695729114926 0.831318963804686 0.01903507258266566
  outer loop
    vertex 122.76023416060545 -169.50432932206527 8.000000000000025
    vertex 124.73412263488254 -168.0022397237143 2.3969715101657127e-14
    vertex 123.66826063059706 -168.7144259459477 2.3969715101657127e-14
  endloop
endfacet
facet normal -0.6541861917692366 0.756083457406725 -0.019448185888578214
  outer loop
    vertex 123.70988546723669 -168.6826623940193 8.000000000000025
    vertex 124.73412263488254 -168.0022397237143 2.3969715101657127e-14
    vertex 122.76023416060545 -169.50432932206527 8.000000000000025
  endloop
endfacet
facet normal -0.9991960765783731 -0.040060564786469154 0.001533525146567733
  outer loop
    vertex 119.83695497419382 -176.25369193134335 8.000000000000025
    vertex 119.83412263488252 -176.48928868080182 2.3969715101657127e-14
    vertex 119.88726214163657 -177.5084601703958 8.000000000000025
  endloop
endfacet
facet normal -0.9978576890215868 0.06540304833529285 -0.00157280925409745
  outer loop
    vertex 119.9179629934192 -175.21013199704532 2.3969715101657127e-14
    vertex 119.83412263488252 -176.48928868080182 2.3969715101657127e-14
    vertex 119.83695497419382 -176.25369193134335 8.000000000000025
  endloop
endfacet
facet normal -0.8902773070180902 0.4554178678892153 0.0009392634659123076
  outer loop
    vertex 121.21327866484602 -171.47636669534268 8.000000000000025
    vertex 121.14707367779503 -171.5892886808018 2.3969715101657127e-14
    vertex 120.64137544219024 -172.59435634142483 8.000000000000025
  endloop
endfacet
facet normal -0.8314692282971827 0.5555699764354111 -0.0009610819134831958
  outer loop
    vertex 121.85925990002842 -170.52342667651635 2.3969715101657127e-14
    vertex 121.14707367779503 -171.5892886808018 2.3969715101657127e-14
    vertex 121.21327866484602 -171.47636669534268 8.000000000000025
  endloop
endfacet
facet normal -0.6593036906444216 -0.7517917737432547 0.011303646960867655
  outer loop
    vertex 124.35387487380233 -184.7451340997524 8.000000000000025
    vertex 122.70447617925436 -183.41893513642998 2.3969715101657127e-14
    vertex 123.66826063059706 -184.26415141565593 2.3969715101657127e-14
  endloop
endfacet
facet normal -0.5916284504240938 -0.8061264789186708 -0.011656613357719373
  outer loop
    vertex 123.34149155544918 -184.0021306263075 8.000000000000025
    vertex 122.70447617925436 -183.41893513642998 2.3969715101657127e-14
    vertex 124.35387487380233 -184.7451340997524 8.000000000000025
  endloop
endfacet
facet normal -0.44220327831921835 0.8966995433333966 0.019651708053350137
  outer loop
    vertex 123.70988546723669 -168.6826623940193 8.000000000000025
    vertex 125.88382499770464 -167.4352692621912 2.3969715101657127e-14
    vertex 124.73412263488254 -168.0022397237143 2.3969715101657127e-14
  endloop
endfacet
facet normal -0.49768469903124735 0.8673580231658533 1.0433700688269514e-15
  outer loop
    vertex 125.88382499770462 -167.4352692621912 8.000000000000025
    vertex 125.88382499770464 -167.4352692621912 2.3969715101657127e-14
    vertex 123.70988546723669 -168.6826623940193 8.000000000000025
  endloop
endfacet
facet normal 0.0 0.0 1.0
  outer loop
    vertex 125.88382499770462 -167.4352692621912 8.000000000000025
    vertex 124.75681258437626 -167.98918005377647 8.000000000000025
    vertex 123.70988546723669 -168.6826623940193 8.000000000000025
  endloop
endfacet
facet normal -0.6592338637495362 0.7517121514297372 0.0184269986360672
  outer loop
    vertex 121.92345191268296 -170.44068908967208 8.000000000000025
    vertex 123.66826063059706 -168.7144259459477 2.3969715101657127e-14
    vertex 122.70447617925437 -169.55964222517363 2.3969715101657127e-14
  endloop
endfacet
facet normal -0.7455098804610552 0.6662283613648228 -0.01883583414894465
  outer loop
    vertex 123.66826063059706 -168.7144259459477 2.3969715101657127e-14
    vertex 121.92345191268296 -170.44068908967208 8.000000000000025
    vertex 122.76023416060545 -169.50432932206527 8.000000000000025
  endloop
endfacet
facet normal -0.9563552986016781 -0.29220092516668134 0.0017782486413840497
  outer loop
    vertex 120.0976124889119 -178.74649364176565 8.000000000000025
    vertex 120.16804953724966 -179.02571532280652 2.3969715101657127e-14
    vertex 120.46455206913305 -179.9474638700802 8.000000000000025
  endloop
endfacet
facet normal -0.98078364481652 -0.1950899966777119 -0.0018262685215254153
  outer loop
    vertex 119.91796299341917 -177.76844536455832 2.3969715101657127e-14
    vertex 120.16804953724966 -179.02571532280652 2.3969715101657127e-14
    vertex 120.0976124889119 -178.74649364176565 8.000000000000025
  endloop
endfacet
facet normal -0.7768079343614026 -0.6297341562315472 0.002079804921640976
  outer loop
    vertex 121.64162611908179 -182.1602673833639 8.000000000000025
    vertex 121.85925990002842 -182.4551506850873 2.3969715101657127e-14
    vertex 122.43243306545118 -183.13576649582112 8.000000000000025
  endloop
endfacet
facet normal -0.8314677067435224 -0.5555689597657647 -0.0021409314453584728
  outer loop
    vertex 121.14707367779502 -181.3892886808018 2.3969715101657127e-14
    vertex 121.85925990002842 -182.4551506850873 2.3969715101657127e-14
    vertex 121.64162611908179 -182.1602673833639 8.000000000000025
  endloop
endfacet
facet normal -0.9766791586123615 0.214700370203214 0.0012538607787846289
  outer loop
    vertex 120.21713287982055 -173.77630066883827 8.000000000000025
    vertex 120.16804953724966 -173.95286203879712 2.3969715101657127e-14
    vertex 119.94751702888225 -175.00279218440357 8.000000000000025
  endloop
endfacet
facet normal -0.9469293484139738 0.3214392001618489 -0.001284410992551084
  outer loop
    vertex 120.58010321627192 -172.7389910436239 2.3969715101657127e-14
    vertex 120.16804953724966 -173.95286203879712 2.3969715101657127e-14
    vertex 120.21713287982055 -173.77630066883827 8.000000000000025
  endloop
endfacet
facet normal -0.8247307183303537 0.565525110923232 0.0007688677162548202
  outer loop
    vertex 121.92345191268296 -170.44068908967208 8.000000000000025
    vertex 121.85925990002842 -170.52342667651635 2.3969715101657127e-14
    vertex 121.21327866484602 -171.47636669534268 8.000000000000025
  endloop
endfacet
facet normal -0.7518395750472976 0.659345611262968 -0.0007863211570777795
  outer loop
    vertex 122.70447617925437 -169.55964222517363 2.3969715101657127e-14
    vertex 121.85925990002842 -170.52342667651635 2.3969715101657127e-14
    vertex 121.92345191268296 -170.44068908967208 8.000000000000025
  endloop
endfacet
facet normal -0.996115719714965 0.08804270761791025 0.001398060100474953
  outer loop
    vertex 119.94751702888225 -175.00279218440357 8.000000000000025
    vertex 119.9179629934192 -175.21013199704532 2.3969715101657127e-14
    vertex 119.83695497419382 -176.25369193134335 8.000000000000025
  endloop
endfacet
facet normal -0.9807842734191333 0.19509012171452825 -0.0014329770107876835
  outer loop
    vertex 120.16804953724966 -173.95286203879712 2.3969715101657127e-14
    vertex 119.9179629934192 -175.21013199704532 2.3969715101657127e-14
    vertex 119.94751702888225 -175.00279218440357 8.000000000000025
  endloop
endfacet
facet normal -0.9412055317423701 0.3378327026423745 0.0011009282045867461
  outer loop
    vertex 120.64137544219024 -172.59435634142483 8.000000000000025
    vertex 120.58010321627192 -172.7389910436239 2.3969715101657127e-14
    vertex 120.21713287982055 -173.77630066883827 8.000000000000025
  endloop
endfacet
facet normal -0.8968721718469981 0.4422884092811124 -0.001127112253653129
  outer loop
    vertex 121.14707367779503 -171.5892886808018 2.3969715101657127e-14
    vertex 120.58010321627192 -172.7389910436239 2.3969715101657127e-14
    vertex 120.64137544219024 -172.59435634142483 8.000000000000025
  endloop
endfacet
facet normal 0.9964415269740605 0.08428686735802723 -8.5513583200682e-05
  outer loop
    vertex 139.35028227634587 -175.21013199704532 2.3969715101657127e-14
    vertex 139.42625569943397 -176.09669468426256 8.000000000000025
    vertex 139.43412263488253 -176.48928868080182 2.3969715101657127e-14
  endloop
endfacet
facet normal 0.9964415269740605 0.08428686735802723 -8.5513583200682e-05
  outer loop
    vertex 139.42625569943397 -176.09669468426256 8.000000000000025
    vertex 139.35028227634587 -175.21013199704532 2.3969715101657127e-14
    vertex 139.29565861636124 -174.8477276924154 8.000000000000025
  endloop
endfacet
facet normal 0.9074320405584798 -0.42019886156630654 -9.222935362658169e-05
  outer loop
    vertex 138.68814205349312 -180.23958631797973 2.3969715101657127e-14
    vertex 138.35884409220444 -180.95238575482415 8.000000000000025
    vertex 138.12117159197 -181.38928868080185 2.3969715101657127e-14
  endloop
endfacet
facet normal 0.9074320405584798 -0.42019886156630654 -9.222935362658169e-05
  outer loop
    vertex 138.35884409220444 -180.95238575482415 8.000000000000025
    vertex 138.68814205349312 -180.23958631797973 2.3969715101657127e-14
    vertex 138.85794243579218 -179.80005117309068 8.000000000000025
  endloop
endfacet
facet normal 0.9540915944628641 -0.2995149772530957 -8.818382684764238e-05
  outer loop
    vertex 139.1001957325154 -179.02571532280652 2.3969715101657127e-14
    vertex 138.85794243579218 -179.80005117309068 8.000000000000025
    vertex 138.68814205349312 -180.23958631797973 2.3969715101657127e-14
  endloop
endfacet
facet normal 0.9540915944628641 -0.2995149772530957 -8.818382684764238e-05
  outer loop
    vertex 138.85794243579218 -179.80005117309068 8.000000000000025
    vertex 139.1001957325154 -179.02571532280652 2.3969715101657127e-14
    vertex 139.20558591325528 -178.59335396276478 8.000000000000025
  endloop
endfacet
facet normal 0.9847824462738227 -0.17379161690100314 -8.605742502511889e-05
  outer loop
    vertex 139.35028227634587 -177.76844536455832 2.3969715101657127e-14
    vertex 139.20558591325528 -178.59335396276478 8.000000000000025
    vertex 139.1001957325154 -179.02571532280652 2.3969715101657127e-14
  endloop
endfacet
facet normal 0.9847824462738227 -0.17379161690100314 -8.605742502511889e-05
  outer loop
    vertex 139.20558591325528 -178.59335396276478 8.000000000000025
    vertex 139.35028227634587 -177.76844536455832 2.3969715101657127e-14
    vertex 139.39606622830487 -177.35210805867908 8.000000000000025
  endloop
endfacet
facet normal 0.9989807534919647 -0.04513808676694325 -8.529740041900453e-05
  outer loop
    vertex 139.43412263488253 -176.48928868080182 2.3969715101657127e-14
    vertex 139.39606622830487 -177.35210805867908 8.000000000000025
    vertex 139.35028227634587 -177.76844536455832 2.3969715101657127e-14
  endloop
endfacet
facet normal 0.9989807534919647 -0.04513808676694325 -8.529740041900453e-05
  outer loop
    vertex 139.39606622830487 -177.35210805867908 8.000000000000025
    vertex 139.43412263488253 -176.48928868080182 2.3969715101657127e-14
    vertex 139.42625569943397 -176.09669468426256 8.000000000000025
  endloop
endfacet
facet normal 0.9772020770075237 0.21231131204823828 -8.6420700331635e-05
  outer loop
    vertex 139.1001957325154 -173.95286203879715 2.3969715101657127e-14
    vertex 139.29565861636124 -174.8477276924154 8.000000000000025
    vertex 139.35028227634587 -175.21013199704532 2.3969715101657127e-14
  endloop
endfacet
facet normal 0.9772020770075237 0.21231131204823828 -8.6420700331635e-05
  outer loop
    vertex 139.29565861636124 -174.8477276924154 8.000000000000025
    vertex 139.1001957325154 -173.95286203879715 2.3969715101657127e-14
    vertex 139.00641937958022 -173.62571508661412 8.000000000000025
  endloop
endfacet
facet normal 0.9415809977985443 0.3367866043582458 -8.780398861482928e-05
  outer loop
    vertex 138.68814205349315 -172.73899104362397 2.3969715101657127e-14
    vertex 139.00641937958022 -173.62571508661412 8.000000000000025
    vertex 139.1001957325154 -173.95286203879715 2.3969715101657127e-14
  endloop
endfacet
facet normal 0.9415809977985443 0.3367866043582458 -8.780398861482928e-05
  outer loop
    vertex 139.00641937958022 -173.62571508661412 8.000000000000025
    vertex 138.68814205349315 -172.73899104362397 2.3969715101657127e-14
    vertex 138.5632872893624 -172.45072228006165 8.000000000000025
  endloop
endfacet
endsolid curing_station
